<?xml version="1.0" encoding="utf-8" standalone="no"?>
<!DOCTYPE svg PUBLIC "-//W3C//DTD SVG 1.1//EN"
  "http://www.w3.org/Graphics/SVG/1.1/DTD/svg11.dtd">
<svg xmlns:xlink="http://www.w3.org/1999/xlink" width="680.4pt" height="320.4pt" viewBox="0 0 680.4 320.4" xmlns="http://www.w3.org/2000/svg" version="1.1">
 <metadata>
  <rdf:RDF xmlns:dc="http://purl.org/dc/elements/1.1/" xmlns:cc="http://creativecommons.org/ns#" xmlns:rdf="http://www.w3.org/1999/02/22-rdf-syntax-ns#">
   <cc:Work>
    <dc:type rdf:resource="http://purl.org/dc/dcmitype/StillImage"/>
    <dc:date>2024-05-14T18:27:38.563255</dc:date>
    <dc:format>image/svg+xml</dc:format>
    <dc:creator>
     <cc:Agent>
      <dc:title>Matplotlib v3.8.4, https://matplotlib.org/</dc:title>
     </cc:Agent>
    </dc:creator>
   </cc:Work>
  </rdf:RDF>
 </metadata>
 <defs>
  <style type="text/css">*{stroke-linejoin: round; stroke-linecap: butt}</style>
 </defs>
 <g id="figure_1">
  <g id="patch_1">
   <path d="M 0 320.4 
L 680.4 320.4 
L 680.4 0 
L 0 0 
L 0 320.4 
z
" style="fill: none"/>
  </g>
  <g id="axes_1">
   <g id="patch_2">
    <path d="M 22.128796 171.053189 
C 24.240497 199.231859 34.531298 226.190879 51.733488 248.609206 
C 68.935678 271.027533 92.312639 287.945187 118.984597 297.278106 
C 145.656554 306.611026 174.481383 307.959564 201.908194 301.157597 
C 229.335005 294.35563 254.189349 279.694425 273.409455 258.980076 
C 292.62956 238.265727 305.392399 212.385246 310.125736 184.526814 
C 314.859073 156.668382 311.360221 128.02493 300.060198 102.125003 
C 288.760175 76.225077 270.142862 54.177742 246.501698 38.698979 
C 222.860535 23.220215 195.207865 14.972843 166.95018 14.972843 
L 166.95018 160.200314 
z
" style="fill: #3498b0"/>
   </g>
   <g id="patch_3">
    <path d="M 166.950153 14.972843 
C 146.964717 14.972846 127.192747 19.098285 108.874851 27.090305 
C 90.556956 35.082324 74.084444 46.770198 60.490897 61.420562 
C 46.89735 76.070925 36.473155 93.370816 29.872386 112.234736 
C 23.271617 131.098657 20.63528 151.123636 22.128796 171.053189 
L 166.95018 160.200314 
z
" style="fill: #3498b0; fill-opacity: 0.188235"/>
   </g>
   <g id="matplotlib.axis_1"/>
   <g id="matplotlib.axis_2"/>
  </g>
  <g id="axes_2">
   <g id="patch_4">
    <path d="M 576.462547 291.045847 
C 606.0986 276.773877 630.024385 252.848092 644.296356 223.21204 
C 658.568328 193.575989 662.356777 159.952574 655.037277 127.883747 
C 647.717777 95.81492 629.71585 67.165016 603.998648 46.656232 
C 578.281446 26.147447 546.344049 14.972069 513.450513 14.972069 
L 513.450513 160.2 
z
" style="fill: #474d6b"/>
   </g>
   <g id="patch_5">
    <path d="M 513.450486 14.972069 
C 491.633683 14.972073 470.094712 19.888206 450.438454 29.354165 
C 430.782196 38.820124 413.509283 52.594816 399.906732 69.651881 
C 386.30418 86.708946 376.718438 106.61395 371.863745 127.88376 
C 367.009052 149.15357 367.009055 171.246457 371.863752 192.516266 
C 376.718449 213.786076 386.304194 233.691078 399.906749 250.74814 
C 413.509304 267.805203 430.782218 281.579891 450.438478 291.045847 
C 470.094739 300.511802 491.63371 305.427931 513.450513 305.427931 
C 535.267315 305.427931 556.806287 300.511802 576.462547 291.045847 
L 513.450513 160.2 
z
" style="fill: #474d6b; fill-opacity: 0.188235"/>
   </g>
   <g id="matplotlib.axis_3"/>
   <g id="matplotlib.axis_4"/>
  </g>
 </g>
</svg>
