<?xml version="1.0" encoding="utf-8" standalone="no"?>
<!DOCTYPE svg PUBLIC "-//W3C//DTD SVG 1.1//EN"
  "http://www.w3.org/Graphics/SVG/1.1/DTD/svg11.dtd">
<svg xmlns:xlink="http://www.w3.org/1999/xlink" width="502.6625pt" height="335.863672pt" viewBox="0 0 502.6625 335.863672" xmlns="http://www.w3.org/2000/svg" version="1.1">
 <metadata>
  <rdf:RDF xmlns:dc="http://purl.org/dc/elements/1.1/" xmlns:cc="http://creativecommons.org/ns#" xmlns:rdf="http://www.w3.org/1999/02/22-rdf-syntax-ns#">
   <cc:Work>
    <dc:type rdf:resource="http://purl.org/dc/dcmitype/StillImage"/>
    <dc:date>2024-05-14T17:06:33.264992</dc:date>
    <dc:format>image/svg+xml</dc:format>
    <dc:creator>
     <cc:Agent>
      <dc:title>Matplotlib v3.8.4, https://matplotlib.org/</dc:title>
     </cc:Agent>
    </dc:creator>
   </cc:Work>
  </rdf:RDF>
 </metadata>
 <defs>
  <style type="text/css">*{stroke-linejoin: round; stroke-linecap: butt}</style>
 </defs>
 <g id="figure_1">
  <g id="patch_1">
   <path d="M 0 335.863672 
L 502.6625 335.863672 
L 502.6625 0 
L 0 0 
z
" style="fill: #ffffff"/>
  </g>
  <g id="axes_1">
   <g id="patch_2">
    <path d="M 49.0625 289.780078 
L 495.4625 289.780078 
L 495.4625 12.580078 
L 49.0625 12.580078 
z
" style="fill: #ffffff"/>
   </g>
   <g id="line2d_1">
    <path d="M 69.353409 274.515613 
L 73.236837 257.480948 
L 77.120264 241.806328 
L 81.003692 227.38317 
L 84.887119 214.111555 
L 88.770547 201.899545 
L 92.653975 190.662541 
L 96.537402 180.322698 
L 100.42083 170.808388 
L 104.304257 162.0537 
L 108.187685 153.997985 
L 112.071112 146.585438 
L 115.95454 139.764708 
L 119.837968 133.488545 
L 123.721395 127.71347 
L 127.604823 122.399476 
L 131.48825 117.509752 
L 135.371678 113.010423 
L 139.255105 108.870319 
L 143.138533 105.060762 
L 147.021961 101.555359 
L 150.905388 98.329827 
L 154.788816 95.361822 
L 158.672243 92.630782 
L 162.555671 90.117788 
L 166.439099 87.805431 
L 170.322526 85.677692 
L 176.147667 82.800325 
L 181.972809 80.260578 
L 187.79795 78.018837 
L 193.623092 76.040134 
L 199.448233 74.293606 
L 205.273374 72.75201 
L 213.040229 70.974183 
L 220.807085 69.468906 
L 228.57394 68.194397 
L 238.282509 66.872409 
L 247.991078 65.798702 
L 259.64136 64.772965 
L 271.291643 63.97382 
L 284.88364 63.261729 
L 300.41735 62.665403 
L 319.834488 62.151473 
L 343.135053 61.759995 
L 374.202474 61.46611 
L 420.803605 61.269861 
L 475.171591 61.191089 
L 475.171591 61.191089 
" clip-path="url(#pee57d8cb56)" style="fill: none; stroke: #474d6b; stroke-width: 1.5; stroke-linecap: square"/>
   </g>
   <g id="matplotlib.axis_1">
    <g id="xtick_1">
     <g id="line2d_2">
      <defs>
       <path id="m1aee30900c" d="M 0 0 
L 0 3.5 
" style="stroke: #000000; stroke-width: 0.8"/>
      </defs>
      <g>
       <use xlink:href="#m1aee30900c" x="69.353409" y="289.780078" style="stroke: #000000; stroke-width: 0.8"/>
      </g>
     </g>
     <g id="text_1">
      <!-- 0.0 -->
      <g transform="translate(58.928409 307.540234) scale(0.15 -0.15)">
       <defs>
        <path id="Helvetica-30" d="M 1731 4475 
Q 2600 4475 2988 3759 
Q 3288 3206 3288 2244 
Q 3288 1331 3016 734 
Q 2622 -122 1728 -122 
Q 922 -122 528 578 
Q 200 1163 200 2147 
Q 200 2909 397 3456 
Q 766 4475 1731 4475 
z
M 1725 391 
Q 2163 391 2422 778 
Q 2681 1166 2681 2222 
Q 2681 2984 2493 3476 
Q 2306 3969 1766 3969 
Q 1269 3969 1039 3501 
Q 809 3034 809 2125 
Q 809 1441 956 1025 
Q 1181 391 1725 391 
z
" transform="scale(0.015625)"/>
        <path id="Helvetica-2e" d="M 547 681 
L 1200 681 
L 1200 0 
L 547 0 
L 547 681 
z
" transform="scale(0.015625)"/>
       </defs>
       <use xlink:href="#Helvetica-30"/>
       <use xlink:href="#Helvetica-2e" x="55.615234"/>
       <use xlink:href="#Helvetica-30" x="83.398438"/>
      </g>
     </g>
    </g>
    <g id="xtick_2">
     <g id="line2d_3">
      <g>
       <use xlink:href="#m1aee30900c" x="166.439099" y="289.780078" style="stroke: #000000; stroke-width: 0.8"/>
      </g>
     </g>
     <g id="text_2">
      <!-- 0.5 -->
      <g transform="translate(156.014099 307.540234) scale(0.15 -0.15)">
       <defs>
        <path id="Helvetica-35" d="M 791 1141 
Q 847 659 1238 475 
Q 1438 381 1700 381 
Q 2200 381 2440 700 
Q 2681 1019 2681 1406 
Q 2681 1875 2395 2131 
Q 2109 2388 1709 2388 
Q 1419 2388 1211 2275 
Q 1003 2163 856 1963 
L 369 1991 
L 709 4400 
L 3034 4400 
L 3034 3856 
L 1131 3856 
L 941 2613 
Q 1097 2731 1238 2791 
Q 1488 2894 1816 2894 
Q 2431 2894 2859 2497 
Q 3288 2100 3288 1491 
Q 3288 856 2895 371 
Q 2503 -113 1644 -113 
Q 1097 -113 676 195 
Q 256 503 206 1141 
L 791 1141 
z
" transform="scale(0.015625)"/>
       </defs>
       <use xlink:href="#Helvetica-30"/>
       <use xlink:href="#Helvetica-2e" x="55.615234"/>
       <use xlink:href="#Helvetica-35" x="83.398438"/>
      </g>
     </g>
    </g>
    <g id="xtick_3">
     <g id="line2d_4">
      <g>
       <use xlink:href="#m1aee30900c" x="263.524788" y="289.780078" style="stroke: #000000; stroke-width: 0.8"/>
      </g>
     </g>
     <g id="text_3">
      <!-- 1.0 -->
      <g transform="translate(253.099788 307.540234) scale(0.15 -0.15)">
       <defs>
        <path id="Helvetica-31" d="M 613 3169 
L 613 3600 
Q 1222 3659 1462 3798 
Q 1703 3938 1822 4456 
L 2266 4456 
L 2266 0 
L 1666 0 
L 1666 3169 
L 613 3169 
z
" transform="scale(0.015625)"/>
       </defs>
       <use xlink:href="#Helvetica-31"/>
       <use xlink:href="#Helvetica-2e" x="55.615234"/>
       <use xlink:href="#Helvetica-30" x="83.398438"/>
      </g>
     </g>
    </g>
    <g id="xtick_4">
     <g id="line2d_5">
      <g>
       <use xlink:href="#m1aee30900c" x="360.610477" y="289.780078" style="stroke: #000000; stroke-width: 0.8"/>
      </g>
     </g>
     <g id="text_4">
      <!-- 1.5 -->
      <g transform="translate(350.185477 307.540234) scale(0.15 -0.15)">
       <use xlink:href="#Helvetica-31"/>
       <use xlink:href="#Helvetica-2e" x="55.615234"/>
       <use xlink:href="#Helvetica-35" x="83.398438"/>
      </g>
     </g>
    </g>
    <g id="xtick_5">
     <g id="line2d_6">
      <g>
       <use xlink:href="#m1aee30900c" x="457.696167" y="289.780078" style="stroke: #000000; stroke-width: 0.8"/>
      </g>
     </g>
     <g id="text_5">
      <!-- 2.0 -->
      <g transform="translate(447.271167 307.540234) scale(0.15 -0.15)">
       <defs>
        <path id="Helvetica-32" d="M 200 0 
Q 231 578 439 1006 
Q 647 1434 1250 1784 
L 1850 2131 
Q 2253 2366 2416 2531 
Q 2672 2791 2672 3125 
Q 2672 3516 2437 3745 
Q 2203 3975 1813 3975 
Q 1234 3975 1013 3538 
Q 894 3303 881 2888 
L 309 2888 
Q 319 3472 525 3841 
Q 891 4491 1816 4491 
Q 2584 4491 2939 4075 
Q 3294 3659 3294 3150 
Q 3294 2613 2916 2231 
Q 2697 2009 2131 1694 
L 1703 1456 
Q 1397 1288 1222 1134 
Q 909 863 828 531 
L 3272 531 
L 3272 0 
L 200 0 
z
" transform="scale(0.015625)"/>
       </defs>
       <use xlink:href="#Helvetica-32"/>
       <use xlink:href="#Helvetica-2e" x="55.615234"/>
       <use xlink:href="#Helvetica-30" x="83.398438"/>
      </g>
     </g>
    </g>
    <g id="text_6">
     <!-- Time (hrs) -->
     <g transform="translate(238.101172 325.537109) scale(0.15 -0.15)">
      <defs>
       <path id="Helvetica-54" d="M 3828 4591 
L 3828 4044 
L 2281 4044 
L 2281 0 
L 1650 0 
L 1650 4044 
L 103 4044 
L 103 4591 
L 3828 4591 
z
" transform="scale(0.015625)"/>
       <path id="Helvetica-69" d="M 413 3331 
L 984 3331 
L 984 0 
L 413 0 
L 413 3331 
z
M 413 4591 
L 984 4591 
L 984 3953 
L 413 3953 
L 413 4591 
z
" transform="scale(0.015625)"/>
       <path id="Helvetica-6d" d="M 413 3347 
L 969 3347 
L 969 2872 
Q 1169 3119 1331 3231 
Q 1609 3422 1963 3422 
Q 2363 3422 2606 3225 
Q 2744 3113 2856 2894 
Q 3044 3163 3297 3292 
Q 3550 3422 3866 3422 
Q 4541 3422 4784 2934 
Q 4916 2672 4916 2228 
L 4916 0 
L 4331 0 
L 4331 2325 
Q 4331 2659 4164 2784 
Q 3997 2909 3756 2909 
Q 3425 2909 3186 2687 
Q 2947 2466 2947 1947 
L 2947 0 
L 2375 0 
L 2375 2184 
Q 2375 2525 2294 2681 
Q 2166 2916 1816 2916 
Q 1497 2916 1236 2669 
Q 975 2422 975 1775 
L 975 0 
L 413 0 
L 413 3347 
z
" transform="scale(0.015625)"/>
       <path id="Helvetica-65" d="M 1806 3422 
Q 2163 3422 2497 3255 
Q 2831 3088 3006 2822 
Q 3175 2569 3231 2231 
Q 3281 2000 3281 1494 
L 828 1494 
Q 844 984 1069 676 
Q 1294 369 1766 369 
Q 2206 369 2469 659 
Q 2619 828 2681 1050 
L 3234 1050 
Q 3213 866 3089 639 
Q 2966 413 2813 269 
Q 2556 19 2178 -69 
Q 1975 -119 1719 -119 
Q 1094 -119 659 336 
Q 225 791 225 1609 
Q 225 2416 662 2919 
Q 1100 3422 1806 3422 
z
M 2703 1941 
Q 2669 2306 2544 2525 
Q 2313 2931 1772 2931 
Q 1384 2931 1121 2651 
Q 859 2372 844 1941 
L 2703 1941 
z
M 1753 3428 
L 1753 3428 
z
" transform="scale(0.015625)"/>
       <path id="Helvetica-20" transform="scale(0.015625)"/>
       <path id="Helvetica-28" d="M 1894 4666 
Q 1403 3713 1256 3263 
Q 1034 2578 1034 1681 
Q 1034 775 1288 25 
Q 1444 -438 1903 -1306 
L 1525 -1306 
Q 1069 -594 959 -397 
Q 850 -200 722 138 
Q 547 600 478 1125 
Q 444 1397 444 1644 
Q 444 2569 734 3291 
Q 919 3750 1503 4666 
L 1894 4666 
z
" transform="scale(0.015625)"/>
       <path id="Helvetica-68" d="M 413 4606 
L 975 4606 
L 975 2894 
Q 1175 3147 1334 3250 
Q 1606 3428 2013 3428 
Q 2741 3428 3000 2919 
Q 3141 2641 3141 2147 
L 3141 0 
L 2563 0 
L 2563 2109 
Q 2563 2478 2469 2650 
Q 2316 2925 1894 2925 
Q 1544 2925 1259 2684 
Q 975 2444 975 1775 
L 975 0 
L 413 0 
L 413 4606 
z
" transform="scale(0.015625)"/>
       <path id="Helvetica-72" d="M 428 3347 
L 963 3347 
L 963 2769 
Q 1028 2938 1284 3180 
Q 1541 3422 1875 3422 
Q 1891 3422 1928 3419 
Q 1966 3416 2056 3406 
L 2056 2813 
Q 2006 2822 1964 2825 
Q 1922 2828 1872 2828 
Q 1447 2828 1219 2554 
Q 991 2281 991 1925 
L 991 0 
L 428 0 
L 428 3347 
z
" transform="scale(0.015625)"/>
       <path id="Helvetica-73" d="M 747 1050 
Q 772 769 888 619 
Q 1100 347 1625 347 
Q 1938 347 2175 483 
Q 2413 619 2413 903 
Q 2413 1119 2222 1231 
Q 2100 1300 1741 1391 
L 1294 1503 
Q 866 1609 663 1741 
Q 300 1969 300 2372 
Q 300 2847 642 3140 
Q 984 3434 1563 3434 
Q 2319 3434 2653 2991 
Q 2863 2709 2856 2384 
L 2325 2384 
Q 2309 2575 2191 2731 
Q 1997 2953 1519 2953 
Q 1200 2953 1036 2831 
Q 872 2709 872 2509 
Q 872 2291 1088 2159 
Q 1213 2081 1456 2022 
L 1828 1931 
Q 2434 1784 2641 1647 
Q 2969 1431 2969 969 
Q 2969 522 2630 197 
Q 2291 -128 1597 -128 
Q 850 -128 539 211 
Q 228 550 206 1050 
L 747 1050 
z
M 1578 3428 
L 1578 3428 
z
" transform="scale(0.015625)"/>
       <path id="Helvetica-29" d="M 222 -1306 
Q 719 -338 863 106 
Q 1081 778 1081 1681 
Q 1081 2584 828 3334 
Q 672 3797 213 4666 
L 591 4666 
Q 1072 3897 1173 3717 
Q 1275 3538 1394 3222 
Q 1544 2831 1608 2450 
Q 1672 2069 1672 1716 
Q 1672 791 1378 66 
Q 1194 -400 613 -1306 
L 222 -1306 
z
" transform="scale(0.015625)"/>
      </defs>
      <use xlink:href="#Helvetica-54"/>
      <use xlink:href="#Helvetica-69" x="61.083984"/>
      <use xlink:href="#Helvetica-6d" x="83.300781"/>
      <use xlink:href="#Helvetica-65" x="166.601562"/>
      <use xlink:href="#Helvetica-20" x="222.216797"/>
      <use xlink:href="#Helvetica-28" x="250"/>
      <use xlink:href="#Helvetica-68" x="283.300781"/>
      <use xlink:href="#Helvetica-72" x="338.916016"/>
      <use xlink:href="#Helvetica-73" x="372.216797"/>
      <use xlink:href="#Helvetica-29" x="422.216797"/>
     </g>
    </g>
   </g>
   <g id="matplotlib.axis_2">
    <g id="ytick_1">
     <g id="line2d_7">
      <defs>
       <path id="m7dc48e78c1" d="M 0 0 
L -3.5 0 
" style="stroke: #000000; stroke-width: 0.8"/>
      </defs>
      <g>
       <use xlink:href="#m7dc48e78c1" x="49.0625" y="289.780078" style="stroke: #000000; stroke-width: 0.8"/>
      </g>
     </g>
     <g id="text_7">
      <!-- 20 -->
      <g transform="translate(25.379687 295.160156) scale(0.15 -0.15)">
       <use xlink:href="#Helvetica-32"/>
       <use xlink:href="#Helvetica-30" x="55.615234"/>
      </g>
     </g>
    </g>
    <g id="ytick_2">
     <g id="line2d_8">
      <g>
       <use xlink:href="#m7dc48e78c1" x="49.0625" y="234.340078" style="stroke: #000000; stroke-width: 0.8"/>
      </g>
     </g>
     <g id="text_8">
      <!-- 25 -->
      <g transform="translate(25.379687 239.720156) scale(0.15 -0.15)">
       <use xlink:href="#Helvetica-32"/>
       <use xlink:href="#Helvetica-35" x="55.615234"/>
      </g>
     </g>
    </g>
    <g id="ytick_3">
     <g id="line2d_9">
      <g>
       <use xlink:href="#m7dc48e78c1" x="49.0625" y="178.900078" style="stroke: #000000; stroke-width: 0.8"/>
      </g>
     </g>
     <g id="text_9">
      <!-- 30 -->
      <g transform="translate(25.379687 184.280156) scale(0.15 -0.15)">
       <defs>
        <path id="Helvetica-33" d="M 1663 -122 
Q 869 -122 511 314 
Q 153 750 153 1375 
L 741 1375 
Q 778 941 903 744 
Q 1122 391 1694 391 
Q 2138 391 2406 628 
Q 2675 866 2675 1241 
Q 2675 1703 2392 1887 
Q 2109 2072 1606 2072 
Q 1550 2072 1492 2070 
Q 1434 2069 1375 2066 
L 1375 2563 
Q 1463 2553 1522 2550 
Q 1581 2547 1650 2547 
Q 1966 2547 2169 2647 
Q 2525 2822 2525 3272 
Q 2525 3606 2287 3787 
Q 2050 3969 1734 3969 
Q 1172 3969 956 3594 
Q 838 3388 822 3006 
L 266 3006 
Q 266 3506 466 3856 
Q 809 4481 1675 4481 
Q 2359 4481 2734 4176 
Q 3109 3872 3109 3294 
Q 3109 2881 2888 2625 
Q 2750 2466 2531 2375 
Q 2884 2278 3082 2001 
Q 3281 1725 3281 1325 
Q 3281 684 2859 281 
Q 2438 -122 1663 -122 
z
" transform="scale(0.015625)"/>
       </defs>
       <use xlink:href="#Helvetica-33"/>
       <use xlink:href="#Helvetica-30" x="55.615234"/>
      </g>
     </g>
    </g>
    <g id="ytick_4">
     <g id="line2d_10">
      <g>
       <use xlink:href="#m7dc48e78c1" x="49.0625" y="123.460078" style="stroke: #000000; stroke-width: 0.8"/>
      </g>
     </g>
     <g id="text_10">
      <!-- 35 -->
      <g transform="translate(25.379687 128.840156) scale(0.15 -0.15)">
       <use xlink:href="#Helvetica-33"/>
       <use xlink:href="#Helvetica-35" x="55.615234"/>
      </g>
     </g>
    </g>
    <g id="ytick_5">
     <g id="line2d_11">
      <g>
       <use xlink:href="#m7dc48e78c1" x="49.0625" y="68.020078" style="stroke: #000000; stroke-width: 0.8"/>
      </g>
     </g>
     <g id="text_11">
      <!-- 40 -->
      <g transform="translate(25.379687 73.400156) scale(0.15 -0.15)">
       <defs>
        <path id="Helvetica-34" d="M 2116 1584 
L 2116 3613 
L 681 1584 
L 2116 1584 
z
M 2125 0 
L 2125 1094 
L 163 1094 
L 163 1644 
L 2213 4488 
L 2688 4488 
L 2688 1584 
L 3347 1584 
L 3347 1094 
L 2688 1094 
L 2688 0 
L 2125 0 
z
" transform="scale(0.015625)"/>
       </defs>
       <use xlink:href="#Helvetica-34"/>
       <use xlink:href="#Helvetica-30" x="55.615234"/>
      </g>
     </g>
    </g>
    <g id="ytick_6">
     <g id="line2d_12">
      <g>
       <use xlink:href="#m7dc48e78c1" x="49.0625" y="12.580078" style="stroke: #000000; stroke-width: 0.8"/>
      </g>
     </g>
     <g id="text_12">
      <!-- 45 -->
      <g transform="translate(25.379687 17.960156) scale(0.15 -0.15)">
       <use xlink:href="#Helvetica-34"/>
       <use xlink:href="#Helvetica-35" x="55.615234"/>
      </g>
     </g>
    </g>
    <g id="text_13">
     <!-- Temperature (℃) -->
     <g transform="translate(18.253125 209.603906) rotate(-90) scale(0.15 -0.15)">
      <defs>
       <path id="Helvetica-70" d="M 1825 378 
Q 2219 378 2480 708 
Q 2741 1038 2741 1694 
Q 2741 2094 2625 2381 
Q 2406 2934 1825 2934 
Q 1241 2934 1025 2350 
Q 909 2038 909 1556 
Q 909 1169 1025 897 
Q 1244 378 1825 378 
z
M 369 3331 
L 916 3331 
L 916 2888 
Q 1084 3116 1284 3241 
Q 1569 3428 1953 3428 
Q 2522 3428 2919 2992 
Q 3316 2556 3316 1747 
Q 3316 653 2744 184 
Q 2381 -113 1900 -113 
Q 1522 -113 1266 53 
Q 1116 147 931 375 
L 931 -1334 
L 369 -1334 
L 369 3331 
z
" transform="scale(0.015625)"/>
       <path id="Helvetica-61" d="M 844 891 
Q 844 647 1022 506 
Q 1200 366 1444 366 
Q 1741 366 2019 503 
Q 2488 731 2488 1250 
L 2488 1703 
Q 2384 1638 2221 1594 
Q 2059 1550 1903 1531 
L 1563 1488 
Q 1256 1447 1103 1359 
Q 844 1213 844 891 
z
M 2206 2028 
Q 2400 2053 2466 2191 
Q 2503 2266 2503 2406 
Q 2503 2694 2298 2823 
Q 2094 2953 1713 2953 
Q 1272 2953 1088 2716 
Q 984 2584 953 2325 
L 428 2325 
Q 444 2944 830 3186 
Q 1216 3428 1725 3428 
Q 2316 3428 2684 3203 
Q 3050 2978 3050 2503 
L 3050 575 
Q 3050 488 3086 434 
Q 3122 381 3238 381 
Q 3275 381 3322 386 
Q 3369 391 3422 400 
L 3422 -16 
Q 3291 -53 3222 -62 
Q 3153 -72 3034 -72 
Q 2744 -72 2613 134 
Q 2544 244 2516 444 
Q 2344 219 2022 53 
Q 1700 -113 1313 -113 
Q 847 -113 551 170 
Q 256 453 256 878 
Q 256 1344 547 1600 
Q 838 1856 1309 1916 
L 2206 2028 
z
M 1741 3428 
L 1741 3428 
z
" transform="scale(0.015625)"/>
       <path id="Helvetica-74" d="M 525 4281 
L 1094 4281 
L 1094 3347 
L 1628 3347 
L 1628 2888 
L 1094 2888 
L 1094 703 
Q 1094 528 1213 469 
Q 1278 434 1431 434 
Q 1472 434 1519 436 
Q 1566 438 1628 444 
L 1628 0 
Q 1531 -28 1426 -40 
Q 1322 -53 1200 -53 
Q 806 -53 665 148 
Q 525 350 525 672 
L 525 2888 
L 72 2888 
L 72 3347 
L 525 3347 
L 525 4281 
z
" transform="scale(0.015625)"/>
       <path id="Helvetica-75" d="M 975 3347 
L 975 1125 
Q 975 869 1056 706 
Q 1206 406 1616 406 
Q 2203 406 2416 931 
Q 2531 1213 2531 1703 
L 2531 3347 
L 3094 3347 
L 3094 0 
L 2563 0 
L 2569 494 
Q 2459 303 2297 172 
Q 1975 -91 1516 -91 
Q 800 -91 541 388 
Q 400 644 400 1072 
L 400 3347 
L 975 3347 
z
M 1747 3428 
L 1747 3428 
z
" transform="scale(0.015625)"/>
       <path id="Helvetica-2103" d="M 1294 4472 
Q 1691 4472 1962 4198 
Q 2234 3925 2234 3531 
Q 2234 3125 1951 2854 
Q 1669 2584 1294 2584 
Q 878 2584 612 2865 
Q 347 3147 347 3522 
Q 347 3922 626 4197 
Q 906 4472 1294 4472 
z
M 688 3525 
Q 688 3281 866 3103 
Q 1044 2925 1294 2925 
Q 1534 2925 1714 3101 
Q 1894 3278 1894 3531 
Q 1894 3775 1717 3953 
Q 1541 4131 1294 4131 
Q 1047 4131 867 3954 
Q 688 3778 688 3525 
z
M 4982 4716 
Q 5854 4716 6335 4256 
Q 6816 3797 6869 3213 
L 6263 3213 
Q 6160 3656 5852 3915 
Q 5544 4175 4988 4175 
Q 4310 4175 3893 3698 
Q 3476 3222 3476 2238 
Q 3476 1431 3852 929 
Q 4229 428 4976 428 
Q 5663 428 6023 956 
Q 6213 1234 6307 1688 
L 6913 1688 
Q 6832 963 6376 472 
Q 5829 -119 4901 -119 
Q 4101 -119 3557 366 
Q 2841 1006 2841 2344 
Q 2841 3359 3379 4009 
Q 3960 4716 4982 4716 
z
M 4857 4716 
L 4857 4716 
z
" transform="scale(0.015625)"/>
      </defs>
      <use xlink:href="#Helvetica-54"/>
      <use xlink:href="#Helvetica-65" x="61.083984"/>
      <use xlink:href="#Helvetica-6d" x="116.699219"/>
      <use xlink:href="#Helvetica-70" x="200"/>
      <use xlink:href="#Helvetica-65" x="255.615234"/>
      <use xlink:href="#Helvetica-72" x="311.230469"/>
      <use xlink:href="#Helvetica-61" x="344.53125"/>
      <use xlink:href="#Helvetica-74" x="400.146484"/>
      <use xlink:href="#Helvetica-75" x="427.929688"/>
      <use xlink:href="#Helvetica-72" x="483.544922"/>
      <use xlink:href="#Helvetica-65" x="516.845703"/>
      <use xlink:href="#Helvetica-20" x="572.460938"/>
      <use xlink:href="#Helvetica-28" x="600.244141"/>
      <use xlink:href="#Helvetica-2103" x="633.544922"/>
      <use xlink:href="#Helvetica-29" x="745.751953"/>
     </g>
    </g>
   </g>
   <g id="PathCollection_1">
    <defs>
     <path id="mca8488d089" d="M 0 4.472136 
C 1.186024 4.472136 2.323632 4.000923 3.162278 3.162278 
C 4.000923 2.323632 4.472136 1.186024 4.472136 0 
C 4.472136 -1.186024 4.000923 -2.323632 3.162278 -3.162278 
C 2.323632 -4.000923 1.186024 -4.472136 0 -4.472136 
C -1.186024 -4.472136 -2.323632 -4.000923 -3.162278 -3.162278 
C -4.000923 -2.323632 -4.472136 -1.186024 -4.472136 0 
C -4.472136 1.186024 -4.000923 2.323632 -3.162278 3.162278 
C -2.323632 4.000923 -1.186024 4.472136 0 4.472136 
z
" style="stroke: #474d6b"/>
    </defs>
    <g clip-path="url(#pee57d8cb56)">
     <use xlink:href="#mca8488d089" x="69.353409" y="265.242478" style="fill: #474d6b; fill-opacity: 0.501961; stroke: #474d6b"/>
     <use xlink:href="#mca8488d089" x="85.450518" y="230.682478" style="fill: #474d6b; fill-opacity: 0.501961; stroke: #474d6b"/>
     <use xlink:href="#mca8488d089" x="101.181784" y="167.264878" style="fill: #474d6b; fill-opacity: 0.501961; stroke: #474d6b"/>
     <use xlink:href="#mca8488d089" x="117.644736" y="131.840878" style="fill: #474d6b; fill-opacity: 0.501961; stroke: #474d6b"/>
     <use xlink:href="#mca8488d089" x="133.741846" y="112.141678" style="fill: #474d6b; fill-opacity: 0.501961; stroke: #474d6b"/>
     <use xlink:href="#mca8488d089" x="150.021876" y="97.626478" style="fill: #474d6b; fill-opacity: 0.501961; stroke: #474d6b"/>
     <use xlink:href="#mca8488d089" x="166.118986" y="87.949678" style="fill: #474d6b; fill-opacity: 0.501961; stroke: #474d6b"/>
     <use xlink:href="#mca8488d089" x="182.216095" y="81.383278" style="fill: #474d6b; fill-opacity: 0.501961; stroke: #474d6b"/>
     <use xlink:href="#mca8488d089" x="198.496126" y="76.890478" style="fill: #474d6b; fill-opacity: 0.501961; stroke: #474d6b"/>
     <use xlink:href="#mca8488d089" x="215.324921" y="66.868078" style="fill: #474d6b; fill-opacity: 0.501961; stroke: #474d6b"/>
     <use xlink:href="#mca8488d089" x="231.056187" y="65.312878" style="fill: #474d6b; fill-opacity: 0.501961; stroke: #474d6b"/>
     <use xlink:href="#mca8488d089" x="247.336218" y="64.103278" style="fill: #474d6b; fill-opacity: 0.501961; stroke: #474d6b"/>
     <use xlink:href="#mca8488d089" x="263.79917" y="63.239278" style="fill: #474d6b; fill-opacity: 0.501961; stroke: #474d6b"/>
     <use xlink:href="#mca8488d089" x="280.079201" y="58.228078" style="fill: #474d6b; fill-opacity: 0.501961; stroke: #474d6b"/>
     <use xlink:href="#mca8488d089" x="296.542154" y="59.783278" style="fill: #474d6b; fill-opacity: 0.501961; stroke: #474d6b"/>
     <use xlink:href="#mca8488d089" x="312.456341" y="63.239278" style="fill: #474d6b; fill-opacity: 0.501961; stroke: #474d6b"/>
     <use xlink:href="#mca8488d089" x="329.468059" y="59.956078" style="fill: #474d6b; fill-opacity: 0.501961; stroke: #474d6b"/>
     <use xlink:href="#mca8488d089" x="344.833481" y="66.004078" style="fill: #474d6b; fill-opacity: 0.501961; stroke: #474d6b"/>
     <use xlink:href="#mca8488d089" x="360.564747" y="59.956078" style="fill: #474d6b; fill-opacity: 0.501961; stroke: #474d6b"/>
     <use xlink:href="#mca8488d089" x="377.210621" y="61.684078" style="fill: #474d6b; fill-opacity: 0.501961; stroke: #474d6b"/>
     <use xlink:href="#mca8488d089" x="393.30773" y="65.312878" style="fill: #474d6b; fill-opacity: 0.501961; stroke: #474d6b"/>
     <use xlink:href="#mca8488d089" x="414.343725" y="61.338478" style="fill: #474d6b; fill-opacity: 0.501961; stroke: #474d6b"/>
     <use xlink:href="#mca8488d089" x="425.867792" y="62.375278" style="fill: #474d6b; fill-opacity: 0.501961; stroke: #474d6b"/>
     <use xlink:href="#mca8488d089" x="441.964901" y="68.077678" style="fill: #474d6b; fill-opacity: 0.501961; stroke: #474d6b"/>
     <use xlink:href="#mca8488d089" x="457.696167" y="63.239278" style="fill: #474d6b; fill-opacity: 0.501961; stroke: #474d6b"/>
    </g>
   </g>
   <g id="patch_3">
    <path d="M 49.0625 289.780078 
L 49.0625 12.580078 
" style="fill: none; stroke: #000000; stroke-width: 0.8; stroke-linejoin: miter; stroke-linecap: square"/>
   </g>
   <g id="patch_4">
    <path d="M 495.4625 289.780078 
L 495.4625 12.580078 
" style="fill: none; stroke: #000000; stroke-width: 0.8; stroke-linejoin: miter; stroke-linecap: square"/>
   </g>
   <g id="patch_5">
    <path d="M 49.0625 289.780078 
L 495.4625 289.780078 
" style="fill: none; stroke: #000000; stroke-width: 0.8; stroke-linejoin: miter; stroke-linecap: square"/>
   </g>
   <g id="patch_6">
    <path d="M 49.0625 12.580078 
L 495.4625 12.580078 
" style="fill: none; stroke: #000000; stroke-width: 0.8; stroke-linejoin: miter; stroke-linecap: square"/>
   </g>
   <g id="legend_1">
    <g id="PathCollection_2">
     <g>
      <use xlink:href="#mca8488d089" x="77.5625" y="32.902734" style="fill: #474d6b; fill-opacity: 0.501961; stroke: #474d6b"/>
     </g>
    </g>
    <g id="text_14">
     <!-- Data -->
     <g transform="translate(104.5625 36.840234) scale(0.15 -0.15)">
      <defs>
       <path id="Helvetica-44" d="M 2250 531 
Q 2566 531 2769 597 
Q 3131 719 3363 1066 
Q 3547 1344 3628 1778 
Q 3675 2038 3675 2259 
Q 3675 3113 3336 3584 
Q 2997 4056 2244 4056 
L 1141 4056 
L 1141 531 
L 2250 531 
z
M 516 4591 
L 2375 4591 
Q 3322 4591 3844 3919 
Q 4309 3313 4309 2366 
Q 4309 1634 4034 1044 
Q 3550 0 2369 0 
L 516 0 
L 516 4591 
z
" transform="scale(0.015625)"/>
      </defs>
      <use xlink:href="#Helvetica-44"/>
      <use xlink:href="#Helvetica-61" x="72.216797"/>
      <use xlink:href="#Helvetica-74" x="127.832031"/>
      <use xlink:href="#Helvetica-61" x="155.615234"/>
     </g>
    </g>
    <g id="line2d_13">
     <path d="M 62.5625 52.976953 
L 77.5625 52.976953 
L 92.5625 52.976953 
" style="fill: none; stroke: #474d6b; stroke-width: 1.5; stroke-linecap: square"/>
    </g>
    <g id="text_15">
     <!-- Fit -->
     <g transform="translate(104.5625 58.226953) scale(0.15 -0.15)">
      <defs>
       <path id="Helvetica-46" d="M 547 4591 
L 3731 4591 
L 3731 4028 
L 1169 4028 
L 1169 2634 
L 3422 2634 
L 3422 2088 
L 1169 2088 
L 1169 0 
L 547 0 
L 547 4591 
z
" transform="scale(0.015625)"/>
      </defs>
      <use xlink:href="#Helvetica-46"/>
      <use xlink:href="#Helvetica-69" x="61.083984"/>
      <use xlink:href="#Helvetica-74" x="83.300781"/>
     </g>
    </g>
   </g>
  </g>
 </g>
 <defs>
  <clipPath id="pee57d8cb56">
   <rect x="49.0625" y="12.580078" width="446.4" height="277.2"/>
  </clipPath>
 </defs>
</svg>
